# xmcd CD database file
#
# Track frame offsets:
#	150
#	12619
#	27465
#	41422
#	52684
#	62289
#	77152
#	97061
#	107492
#	119473
#	134270
#	144111
#	156322
#	172253
#	182285
#	195909
#	210267
#	226185
#	238686
#	249746
#	268364
#	277311
#	290646
#
# Disc length: 4082 seconds
#
# Revision: 0
# Processed by: cddbd v1.5.1PL2 Copyright (c) Steve Scherf et al.
# Submitted via: CDex 1.40Beta9
#
DISCID=470ff017
DTITLE=Gernard Harvie - Madelinot
DYEAR=2005
DGENRE=Country
TTITLE0=Je suis un gars des Îles de la Madeleine
TTITLE1=Madelinot
TTITLE2=Un jour pour oublier
TTITLE3=Le pêcheur
TTITLE4=Ma première bouteille
TTITLE5=Maman je t'écris cette lettre
TTITLE6=L'hôtel
TTITLE7=Louisiane
TTITLE8=Quand on est en amour
TTITLE9=Dans cette prison
TTITLE10=Le camionneur
TTITLE11=Les chanteurs country
TTITLE12=Pour toi que j'écris cette chanson
TTITLE13=Dans les rues de Sept-Îles
TTITLE14=Hommage à Lévis Bouliane
TTITLE15=J'ai quitté mon amour
TTITLE16=Pourquoi j'ai fait pleurer tes jolis yeux
TTITLE17=Un long-jeu mon Dieu
TTITLE18=Cette longue distance
TTITLE19=La Baie James
TTITLE20=À l'âge de seize ans
TTITLE21=Si jeune et parti pour toujours
TTITLE22=Caraquet
EXTD=YEAR: 2005 ID3G: 2
EXTT0=
EXTT1=
EXTT2=
EXTT3=
EXTT4=
EXTT5=
EXTT6=
EXTT7=
EXTT8=
EXTT9=
EXTT10=
EXTT11=
EXTT12=
EXTT13=
EXTT14=
EXTT15=
EXTT16=
EXTT17=
EXTT18=
EXTT19=
EXTT20=
EXTT21=
EXTT22=
PLAYORDER=
